# xmcd
#
# Track frame offsets: 
#        150
#        16012
#        34720
#        55437
#        76130
#        87625
#        103370
#        117862
#        138895
#        151332
#        174205
#        188087
#        199137
#        208812
#        218675
#        229850
#        240695
#        252525
#        263192
#        274137
#        285815
#
# Disc length: 3935 seconds
#
# Revision: 0
# Processed by: cddbd v1.5.2PL0 Copyright (c) Steve Scherf et al.
# Submitted via: ExactAudioCopyFreeDBPlugin 1.0
#
DISCID=260f5d15
DTITLE=Various Artist - SWAMP BLUES Guitarists! [Disk 2]
DYEAR=1900
DGENRE=Blues
TTITLE0=Guitar Kelly - How Can I Stay (When All I Have Is Gone)
TTITLE1=Guitar Kelly - Somebody Stole My Baby And Gone
TTITLE2=Guitar Kelly - Rock Me Baby
TTITLE3=Guitar Kelly - Count The Days I'm Gone
TTITLE4=Guitar Kelly - Kelly's Killer
TTITLE5=Clarence Edwards - Lonesome Bedroom Blues
TTITLE6=Clarence Edwards - Let Me Love You Baby
TTITLE7=Clarence Edwards - Cooling Board
TTITLE8=Clarence Edwards - I Want Somebody
TTITLE9=Clarence Edwards - Do You Wanna Jump Children
TTITLE10=Silas Hogan - Sittin' Here Wonderin' (take 2)
TTITLE11=Silas Hogan - Every Saturday Night
TTITLE12=Silas Hogan - You're Too Late Baby
TTITLE13=Silas Hogan - Lonesome La La
TTITLE14=Silas Hogan - Trouble At Home Blues
TTITLE15=Silas Hogan - Just Give Me A Chance
TTITLE16=Silas Hogan - Airport Blues
TTITLE17=Silas Hogan - Go On Pretty Baby
TTITLE18=Silas Hogan - I'm Gonna Quit You Pretty Baby
TTITLE19=Silas Hogan - Everybody Needs Somebody
TTITLE20=Classie Ballou - Dream Love
EXTD=
EXTT0=
EXTT1=
EXTT2=
EXTT3=
EXTT4=
EXTT5=
EXTT6=
EXTT7=
EXTT8=
EXTT9=
EXTT10=
EXTT11=
EXTT12=
EXTT13=
EXTT14=
EXTT15=
EXTT16=
EXTT17=
EXTT18=
EXTT19=
EXTT20=
PLAYORDER=
